<?xml version="1.0" encoding="utf-8"?>
<!-- Generator: Adobe Illustrator 24.1.2, SVG Export Plug-In . SVG Version: 6.00 Build 0)  -->
<svg version="1.1" id="Слой_1" xmlns="http://www.w3.org/2000/svg" xmlns:xlink="http://www.w3.org/1999/xlink" x="0px" y="0px"
	 viewBox="0 0 23 24" style="enable-background:new 0 0 23 24;" xml:space="preserve">
<style type="text/css">
	.st0{fill:#FFFFFF;}
</style>
<path class="st0" d="M18.6,12.6c-0.1-0.1-0.2-0.2-0.4-0.3c-0.1-0.1-0.3-0.1-0.5-0.1c-0.2,0-0.3,0-0.5,0.1c-0.1,0.1-0.3,0.1-0.4,0.3
	L15,14.5c-0.9-0.3-2.5-0.9-3.6-1.9c-1-1-1.6-2.7-1.9-3.6l1.9-1.9c0.1-0.1,0.2-0.2,0.3-0.4c0.1-0.1,0.1-0.3,0.1-0.5
	c0-0.2,0-0.3-0.1-0.5c-0.1-0.1-0.1-0.3-0.3-0.4L6.6,0.6C6.5,0.5,6.4,0.4,6.2,0.3C6.1,0.3,5.9,0.2,5.8,0.2s-0.3,0-0.5,0.1
	C5.2,0.4,5,0.5,4.9,0.6L1.7,3.9C1.2,4.3,0.9,4.9,1,5.6c0,1.7,0.5,7.6,5.2,12.3c4.7,4.7,10.6,5.1,12.3,5.2h0c0.6,0,1.2-0.2,1.7-0.7
	l3.3-3.3c0.1-0.1,0.2-0.2,0.3-0.4c0.1-0.1,0.1-0.3,0.1-0.5c0-0.2,0-0.3-0.1-0.5c-0.1-0.1-0.1-0.3-0.3-0.4L18.6,12.6z M18.5,20.7
	c-1.5,0-6.6-0.4-10.6-4.5c-4-4-4.4-9.2-4.5-10.6l2.4-2.4l3.1,3.1L7.3,7.8C7.2,7.9,7.1,8.1,7,8.3C7,8.5,6.9,8.7,7,8.9
	c0,0.1,0.7,3.4,2.7,5.4c2,2,5.3,2.7,5.4,2.7c0.2,0,0.4,0,0.6,0c0.2-0.1,0.4-0.2,0.5-0.3l1.6-1.6l3.1,3.1L18.5,20.7z"/>
</svg>
